<svg width="29" height="43" viewBox="0 0 29 43" xmlns="http://www.w3.org/2000/svg" xmlns:xlink="http://www.w3.org/1999/xlink"><title>6DAAAF03-DC06-4776-9863-51E2EB157EDA</title><defs><path id="a" d="M31 23.321v23.24H0V.082h31z"/></defs><g fill="none" fill-rule="evenodd"><path d="M27.867 14.52c0 7.327-13.367 27.28-13.367 27.28S1.133 21.846 1.133 14.521c0-7.325 5.985-13.263 13.367-13.263 7.382 0 13.367 5.938 13.367 13.263" fill="#FEFEFE"/><g transform="translate(-1 -.94)"><mask id="b" fill="#fff"><use xlink:href="#a"/></mask><path d="M15.5 4.313c-6.194 0-11.234 5-11.234 11.147 0 1.501.831 5.489 6.398 15.328a189.14 189.14 0 0 0 4.836 8.037c1.27-2 3.06-4.898 4.836-8.037 5.567-9.839 6.398-13.827 6.398-15.328 0-6.146-5.04-11.147-11.234-11.147zm0 39l-1.604-2.395a173.027 173.027 0 0 1-6.113-9.961C3.555 23.487 1.5 18.34 1.5 15.221c0-7.66 6.28-13.891 14-13.891s14 6.231 14 13.89c0 3.12-2.055 8.267-6.283 15.737a173.027 173.027 0 0 1-6.113 9.96L15.5 43.314z" fill="#19BED3" mask="url(#b)"/></g><path d="M14.595 19.97c-3.033 0-5.492-2.44-5.492-5.45 0-3.01 2.459-5.449 5.492-5.449s5.492 2.44 5.492 5.45c0 3.01-2.459 5.45-5.492 5.45z"/><path d="M14.595 10.482c-2.245 0-4.07 1.812-4.07 4.039 0 2.226 1.825 4.038 4.07 4.038 2.244 0 4.07-1.812 4.07-4.038 0-2.227-1.826-4.039-4.07-4.039m0 10.9c-3.813 0-6.914-3.079-6.914-6.861 0-3.783 3.101-6.86 6.914-6.86 3.812 0 6.914 3.077 6.914 6.86 0 3.782-3.102 6.86-6.914 6.86" fill="#19BED3"/></g></svg>